<?xml version="1.0" standalone="no"?>
<!DOCTYPE svg PUBLIC "-//W3C//DTD SVG 20010904//EN"
 "http://www.w3.org/TR/2001/REC-SVG-20010904/DTD/svg10.dtd">
<svg version="1.0" xmlns="http://www.w3.org/2000/svg"
 width="512.000000pt" height="512.000000pt" viewBox="0 0 512.000000 512.000000"
 preserveAspectRatio="xMidYMid meet">

<g transform="translate(0.000000,512.000000) scale(0.100000,-0.100000)"
fill="#000000" stroke="none">
<path d="M2405 5109 c-616 -34 -1206 -300 -1650 -744 -411 -411 -674 -955
-735 -1525 -15 -136 -15 -426 0 -560 92 -847 618 -1607 1378 -1993 375 -191
736 -278 1157 -278 105 0 233 5 285 11 584 68 1112 323 1525 735 352 351 602
815 699 1295 64 317 64 703 0 1020 -97 481 -346 942 -699 1295 -520 521 -1217
785 -1960 744z m257 -1059 c212 -184 504 -329 769 -384 94 -19 230 -36 291
-36 85 0 79 53 76 -771 -4 -716 -4 -725 -26 -799 -110 -367 -478 -755 -907
-956 -115 -53 -263 -104 -305 -104 -92 0 -374 126 -556 249 -327 219 -566 514
-655 811 -23 75 -23 79 -27 799 -3 824 -9 771 76 771 61 0 197 17 291 36 266
55 562 203 766 382 48 43 89 71 103 71 15 1 52 -24 104 -69z"/>
<path d="M2460 3285 c-30 -9 -73 -26 -95 -40 -59 -34 -132 -117 -163 -183 -23
-51 -27 -72 -30 -195 l-4 -137 -40 -7 c-59 -9 -114 -65 -123 -123 -3 -25 -5
-188 -3 -362 3 -302 4 -318 24 -344 11 -15 33 -37 48 -48 27 -21 38 -21 486
-21 448 0 459 0 486 21 15 11 37 33 48 48 20 26 21 42 24 344 2 174 0 337 -3
362 -9 58 -64 114 -123 123 l-40 7 -4 137 c-4 131 -6 142 -36 204 -82 170
-278 262 -452 214z m234 -109 c60 -29 104 -74 138 -139 19 -36 23 -61 26 -174
l4 -133 -302 0 -302 0 4 133 c3 119 6 137 30 182 77 147 252 204 402 131z
m316 -556 c19 -19 20 -33 20 -343 0 -276 -2 -326 -16 -345 l-15 -22 -439 0
-439 0 -15 22 c-14 19 -16 69 -16 345 0 310 1 324 20 343 19 19 33 20 450 20
417 0 431 -1 450 -20z"/>
<path d="M2514 2441 c-36 -16 -64 -60 -64 -102 0 -30 8 -47 34 -77 30 -33 35
-46 38 -98 l3 -59 35 0 35 0 3 59 c3 52 8 65 38 98 45 50 47 103 7 148 -30 34
-89 48 -129 31z m66 -101 c0 -13 -7 -20 -20 -20 -13 0 -20 7 -20 20 0 13 7 20
20 20 13 0 20 -7 20 -20z"/>
</g>
</svg>
